<?xml version="1.0" standalone="no"?>
<!DOCTYPE svg PUBLIC "-//W3C//DTD SVG 20010904//EN"
 "http://www.w3.org/TR/2001/REC-SVG-20010904/DTD/svg10.dtd">
<svg version="1.0" xmlns="http://www.w3.org/2000/svg"
 width="512.000000pt" height="512.000000pt" viewBox="0 0 512.000000 512.000000"
 preserveAspectRatio="xMidYMid meet">
<metadata>
Created by potrace 1.11, written by Peter Selinger 2001-2013
</metadata>
<g transform="translate(0.000000,512.000000) scale(0.100000,-0.100000)"
fill="#000000" stroke="none">
<path d="M2338 3962 l-98 -3 0 -79 c0 -77 1 -80 23 -80 13 0 29 -6 36 -12 11
-10 13 -10 7 0 -10 17 4 15 28 -5 17 -15 18 -15 8 -2 -11 15 -9 17 21 16 l33
-1 3 -67 2 -68 -147 0 c-81 -1 -149 -3 -151 -5 -2 -2 -4 -38 -4 -79 l0 -75
-156 0 c-85 -1 -157 -3 -159 -4 -1 -2 -4 -37 -6 -78 l-3 -75 -77 -3 -78 -3 -1
-42 c-1 -23 0 -59 1 -79 l2 -38 -81 0 -81 0 -1 -57 c-2 -106 4 -98 -71 -101
l-68 -3 0 -50 c0 -37 -3 -48 -12 -43 -10 6 -10 4 0 -7 29 -31 14 -39 -65 -37
-58 2 -77 7 -80 18 -4 13 -3 13 6 0 7 -9 11 -10 11 -3 0 6 -4 15 -10 18 -15 9
-12 27 3 19 9 -6 9 -4 0 7 -7 7 -13 28 -13 46 l0 33 -80 0 c-73 0 -80 2 -80
20 0 11 6 20 13 20 8 0 7 4 -3 10 -12 8 -13 11 -1 19 11 7 11 9 0 13 -12 5
-12 9 -1 28 10 16 10 20 1 14 -9 -5 -11 -1 -7 14 6 20 2 21 -76 24 l-81 3 -2
37 c-1 26 3 36 10 31 9 -5 9 -3 2 8 -6 8 -12 28 -14 44 -2 17 -4 31 -6 33 -2
3 -550 4 -732 2 l-43 0 0 -160 0 -160 38 -1 c20 -1 40 -1 45 0 11 2 8 -13 -5
-29 -7 -8 -2 -5 12 7 14 12 34 21 45 19 21 -3 22 -11 25 -258 0 -32 4 -38 21
-38 11 0 18 -4 14 -9 -3 -5 0 -13 6 -17 7 -4 9 -3 6 3 -4 6 0 14 9 17 23 9 26
8 18 -6 -6 -10 -4 -10 8 0 19 15 38 12 56 -8 12 -13 13 -13 8 3 -3 9 -1 17 4
17 6 0 10 -35 10 -80 l0 -80 48 -1 c26 -1 56 -2 67 -3 19 -1 20 -9 23 -154 2
-120 5 -157 17 -168 8 -9 15 -11 15 -6 0 5 29 9 63 9 l64 -1 1 -64 c0 -35 3
-67 6 -69 3 -3 37 -6 76 -7 50 -1 74 -5 81 -16 9 -13 10 -12 5 3 -7 22 10 22
24 0 8 -13 10 -13 7 -3 -4 12 5 16 40 18 24 1 41 -2 38 -8 -3 -5 -1 -12 5 -15
6 -4 9 -1 8 7 -2 7 4 13 12 13 12 0 16 -16 18 -74 1 -41 4 -76 5 -78 2 -1 26
-4 55 -5 32 -1 48 -6 44 -13 -3 -5 2 -4 11 4 9 7 23 11 31 8 11 -4 14 -49 15
-238 0 -127 3 -234 5 -237 3 -2 23 -4 45 -4 23 0 45 -5 52 -14 6 -8 16 -14 22
-14 6 0 2 6 -9 14 -18 14 -17 15 13 14 l32 -1 -1 -74 c-1 -40 2 -76 5 -80 4
-3 21 -6 39 -5 18 0 39 -5 47 -11 12 -9 13 -9 7 1 -5 8 -1 11 16 9 21 -4 23
-9 25 -66 1 -70 2 -71 32 -74 15 -1 20 -6 16 -17 -4 -11 -1 -10 9 3 14 18 46
24 46 7 0 -5 -8 -7 -17 -4 -15 5 -16 4 -3 -5 11 -8 18 -7 25 2 15 18 44 20 63
5 12 -10 14 -10 8 0 -4 6 -2 12 3 12 6 0 11 -6 11 -12 0 -9 3 -10 8 -2 4 6 32
11 62 10 l55 -1 1 -73 c1 -40 4 -75 7 -78 2 -3 14 -6 26 -7 15 -1 20 -6 16
-17 -4 -11 -1 -10 9 3 15 19 31 23 20 5 -5 -8 0 -7 11 2 17 14 18 13 12 -5 -7
-20 -7 -20 8 -1 14 18 20 15 16 -7 -1 -5 3 -6 9 -2 6 3 8 10 6 14 -3 4 20 7
50 8 40 1 57 -3 65 -16 9 -13 10 -14 6 0 -4 13 4 15 51 15 42 -1 56 -5 54 -14
-1 -8 2 -11 8 -7 6 3 8 10 6 14 -3 4 9 8 27 9 17 0 35 -5 39 -11 6 -9 8 -9 8
1 0 18 27 15 40 -6 8 -12 10 -12 7 -2 -7 24 99 25 114 1 9 -14 10 -14 6 0 -4
12 2 16 26 16 18 0 38 -5 46 -11 11 -8 13 -8 7 2 -4 6 -3 12 3 12 5 0 12 -6
14 -12 4 -10 6 -10 6 0 1 14 37 16 46 2 3 -5 12 -10 18 -10 8 0 7 3 -2 9 -10
6 -2 9 23 9 23 0 40 -6 47 -16 8 -14 10 -14 6 -2 -7 24 99 25 114 1 9 -14 10
-14 6 0 -4 12 2 16 26 16 18 0 38 -5 46 -11 11 -8 13 -8 7 2 -4 6 -2 12 3 12
6 0 11 -4 11 -10 0 -5 5 -10 11 -10 5 0 8 4 4 9 -10 18 75 10 86 -8 9 -13 10
-13 6 -1 -7 24 99 25 114 1 9 -14 10 -14 6 0 -4 12 2 16 26 16 18 0 38 -5 46
-11 11 -8 13 -8 7 2 -4 6 -3 12 3 12 5 0 12 -6 14 -12 4 -10 6 -10 6 0 1 6 10
12 22 12 11 0 17 -5 14 -10 -3 -6 -1 -10 4 -10 6 0 11 3 11 8 0 4 52 8 115 8
78 1 115 -2 115 -10 0 -6 5 -4 10 4 9 13 11 13 20 0 8 -13 10 -12 11 5 1 11 1
26 0 34 -2 7 2 10 8 7 5 -4 13 -2 16 4 4 6 1 9 -7 8 -20 -4 -19 89 2 98 28 13
62 15 55 4 -3 -5 -1 -10 4 -10 6 0 11 5 11 12 0 9 3 9 12 0 7 -7 17 -12 23
-12 5 0 4 4 -3 8 -8 6 -2 9 17 9 27 0 29 -2 20 -21 -10 -21 -10 -21 6 -1 18
23 65 31 76 13 7 -10 9 -10 9 1 0 11 3 11 15 1 11 -10 19 -10 27 -2 6 6 17 8
24 5 10 -4 12 0 7 13 -5 13 -3 15 8 9 12 -8 12 -6 0 8 -11 14 -11 17 0 17 9 0
10 3 4 8 -6 4 -11 25 -10 47 0 40 0 40 40 41 22 0 46 -4 54 -10 11 -8 13 -8 7
2 -5 9 -3 13 5 11 8 -1 23 -1 34 0 17 1 18 3 5 11 -13 9 -13 11 0 20 9 6 10
10 3 10 -13 0 -15 108 -1 116 4 3 17 0 29 -7 15 -8 19 -8 15 0 -11 17 5 13 28
-6 18 -16 19 -16 8 -1 -12 15 -11 17 13 15 14 -1 31 -9 36 -17 9 -13 10 -12 5
3 -4 13 0 17 17 17 13 0 29 -6 36 -12 8 -7 11 -8 8 -3 -3 7 18 11 59 12 54 2
64 0 64 -15 1 -15 1 -16 10 -1 8 13 26 17 82 17 62 0 76 -4 91 -22 l18 -21
-11 23 c-13 26 -4 28 24 5 17 -15 19 -15 8 -1 -12 14 -8 16 38 14 43 -2 50 0
50 16 0 10 6 18 13 18 9 0 9 2 0 8 -7 4 -11 29 -10 62 l2 55 55 1 c30 1 62 2
70 3 13 1 15 16 15 79 l-1 77 38 1 c21 1 35 -3 31 -9 -3 -5 4 -4 16 2 12 7 27
11 34 10 37 -5 43 1 39 42 -3 32 -1 40 8 34 10 -6 11 -4 4 6 -5 8 -9 28 -9 45
-1 28 2 31 26 29 15 -1 32 -6 39 -10 9 -5 11 -4 6 3 -9 15 -1 15 26 1 15 -8
19 -8 13 1 -4 7 -1 11 6 9 30 -4 63 2 53 9 -14 9 -14 123 1 114 5 -3 5 1 -2 9
-15 18 -13 160 2 151 6 -3 5 1 -2 9 -15 18 -13 160 2 151 6 -3 5 1 -2 9 -14
17 -13 160 1 151 5 -3 6 1 1 8 -14 22 -15 81 -1 73 7 -4 6 -1 -2 9 -14 18 -12
129 3 121 6 -3 4 0 -2 8 -7 7 -13 17 -13 22 0 4 6 5 13 1 9 -6 9 -4 1 7 -5 8
-11 30 -13 49 -2 19 -5 37 -7 39 -2 2 -36 4 -76 4 -70 0 -73 1 -74 23 -1 14 2
21 8 18 6 -4 5 3 -2 16 -6 12 -10 27 -7 33 2 7 1 20 -2 30 -7 19 -58 21 -403
18 l-57 -1 -3 -67 -3 -68 -77 -3 -77 -3 -3 -77 -3 -77 -66 -2 c-79 -2 -100 7
-82 36 8 13 9 22 3 26 -15 9 -12 38 3 29 10 -6 10 -4 0 7 -7 7 -13 23 -13 36
0 18 -6 23 -27 24 -109 3 -107 2 -108 32 -1 15 -6 31 -10 35 -5 4 -5 -1 -2
-10 4 -10 2 -18 -3 -18 -17 0 -11 32 8 46 16 13 16 14 -1 8 -10 -4 -17 -3 -16
2 7 38 -1 43 -68 46 l-68 3 -2 73 c0 41 -4 76 -7 79 -3 3 -38 6 -78 7 l-72 1
-2 32 c-1 22 2 30 10 26 6 -4 5 1 -3 10 -7 9 -11 28 -9 41 8 41 -5 48 -83 50
l-74 1 0 77 0 78 -30 1 c-16 0 -88 1 -160 2 l-129 2 -2 32 c-2 30 0 32 20 22
18 -9 18 -8 -3 9 -17 14 -23 26 -19 45 9 47 0 49 -156 49 -133 1 -164 6 -136
23 6 3 10 12 10 18 0 7 -4 6 -10 -3 -5 -8 -10 -10 -10 -5 0 6 6 17 13 24 8 10
8 12 0 7 -7 -4 -11 1 -10 13 0 10 6 17 13 14 7 -2 15 1 19 7 3 6 3 10 -2 9
-19 -3 -30 2 -30 14 0 15 55 16 78 2 8 -5 10 -4 5 3 -4 7 -3 12 3 12 5 0 12
-6 14 -12 4 -10 6 -10 6 0 1 6 8 12 17 12 9 0 12 -5 8 -12 -5 -9 -2 -9 9 1 9
7 17 19 17 25 0 6 -4 5 -9 -3 -5 -8 -9 17 -9 63 1 42 -2 79 -4 81 -6 6 -542
11 -680 7z m1639 -1067 c0 -8 -4 -15 -9 -15 -4 0 -8 7 -8 15 0 8 4 15 8 15 5
0 9 -7 9 -15z m761 -97 c2 -44 7 -78 13 -78 6 0 7 -6 3 -12 -6 -10 -5 -10 7
-2 8 7 26 12 41 12 20 0 25 -5 21 -17 -4 -15 -4 -15 6 0 6 9 23 16 38 15 l28
-1 0 -305 0 -305 -77 -3 -78 -3 -1 -42 c-1 -23 0 -59 1 -80 1 -21 -2 -37 -7
-36 -4 1 -36 1 -70 0 l-63 -1 0 -80 0 -80 -80 0 -79 0 -3 -77 -3 -78 -155 0
c-143 0 -155 1 -158 19 -3 11 0 16 7 12 6 -4 11 -2 11 3 0 6 -4 11 -10 11 -5
0 -10 5 -10 11 0 5 6 7 13 3 9 -6 9 -4 1 7 -6 8 -11 28 -11 46 0 24 4 30 16
26 14 -4 14 -3 0 6 -24 15 -23 121 1 114 12 -4 12 -2 -1 6 -24 15 -23 121 1
114 12 -4 12 -2 -1 6 -24 15 -23 121 1 114 13 -4 13 -3 -1 6 -12 8 -16 28 -16
81 -1 38 3 73 8 76 6 3 6 11 1 17 -5 7 -8 30 -8 52 l1 40 53 1 c37 1 52 -3 48
-11 -2 -6 2 -12 10 -12 8 0 13 6 10 13 -4 10 3 13 25 10 22 -3 27 0 20 7 -14
14 -15 60 -1 52 6 -3 10 -1 10 4 0 6 -4 11 -10 11 -5 0 -9 11 -8 24 2 16 7 22
18 19 13 -4 13 -3 -1 9 -12 10 -14 16 -5 24 15 14 109 13 118 -1 5 -6 8 -6 8
3 0 6 8 12 17 12 9 0 13 3 10 7 -4 3 -1 13 6 21 9 13 9 14 0 8 -7 -4 -13 -2
-13 3 0 6 6 11 13 11 8 0 9 2 1 8 -6 4 -11 27 -9 52 l2 44 41 3 c23 1 42 -2
42 -7 0 -6 5 -10 11 -10 5 0 7 5 4 10 -3 6 -1 10 4 10 6 0 11 -6 12 -12 0 -10
2 -10 6 0 2 6 12 12 20 12 13 0 13 -3 3 -15 -20 -24 -5 -18 16 7 10 12 13 18
7 14 -7 -4 -13 -2 -13 3 0 6 6 11 13 12 10 0 10 2 0 6 -7 2 -13 9 -13 14 0 6
6 7 13 3 9 -6 9 -5 0 7 -9 11 -12 100 -4 105 0 0 29 0 64 0 l62 -1 3 -77z"/>
<path d="M4613 2841 c-2 -26 -2 -26 8 -3 5 15 13 21 21 16 7 -4 9 -3 5 1 -16
18 -33 12 -34 -14z"/>
<path d="M4695 2861 c-3 -5 0 -13 6 -17 7 -4 9 -3 5 4 -3 6 2 13 11 15 16 4
16 5 1 6 -9 0 -19 -3 -23 -8z"/>
<path d="M4456 2701 c9 -9 34 -9 34 -1 0 5 -9 8 -20 7 -10 -1 -17 -3 -14 -6z"/>
<path d="M4855 2701 c-3 -5 0 -13 6 -17 7 -4 9 -3 5 4 -3 6 2 13 11 15 16 4
16 5 1 6 -9 0 -19 -3 -23 -8z"/>
<path d="M4516 2678 c3 -5 10 -6 15 -3 13 9 11 12 -6 12 -8 0 -12 -4 -9 -9z"/>
<path d="M4370 2540 c0 -5 5 -10 11 -10 5 0 7 5 4 10 -3 6 -8 10 -11 10 -2 0
-4 -4 -4 -10z"/>
<path d="M4310 2481 c0 -6 4 -13 10 -16 6 -3 7 1 4 9 -7 18 -14 21 -14 7z"/>
<path d="M4156 2373 c-6 -14 -5 -15 5 -6 7 7 10 15 7 18 -3 3 -9 -2 -12 -12z"/>
<path d="M4130 2361 c0 -6 4 -13 10 -16 6 -3 7 1 4 9 -7 18 -14 21 -14 7z"/>
<path d="M4130 2261 c0 -6 4 -13 10 -16 6 -3 7 1 4 9 -7 18 -14 21 -14 7z"/>
<path d="M4130 2160 c0 -5 5 -10 11 -10 5 0 7 5 4 10 -3 6 -8 10 -11 10 -2 0
-4 -4 -4 -10z"/>
<path d="M4130 2040 c0 -5 5 -10 11 -10 5 0 7 5 4 10 -3 6 -8 10 -11 10 -2 0
-4 -4 -4 -10z"/>
<path d="M4130 1920 c0 -5 5 -10 11 -10 5 0 7 5 4 10 -3 6 -8 10 -11 10 -2 0
-4 -4 -4 -10z"/>
<path d="M4130 1800 c0 -5 5 -10 11 -10 5 0 7 5 4 10 -3 6 -8 10 -11 10 -2 0
-4 -4 -4 -10z"/>
<path d="M4146 1642 c-3 -5 1 -9 9 -9 8 0 12 4 9 9 -3 4 -7 8 -9 8 -2 0 -6 -4
-9 -8z"/>
<path d="M2913 3685 c0 -8 4 -12 9 -9 5 3 6 10 3 15 -9 13 -12 11 -12 -6z"/>
<path d="M3190 3600 c0 -5 5 -10 11 -10 5 0 7 5 4 10 -3 6 -8 10 -11 10 -2 0
-4 -4 -4 -10z"/>
<path d="M3200 3520 c-9 -6 -10 -10 -3 -10 6 0 15 5 18 10 8 12 4 12 -15 0z"/>
<path d="M3510 3441 c0 -6 4 -13 10 -16 6 -3 7 1 4 9 -7 18 -14 21 -14 7z"/>
<path d="M3516 3402 c-3 -5 1 -9 9 -9 8 0 12 4 9 9 -3 4 -7 8 -9 8 -2 0 -6 -4
-9 -8z"/>
<path d="M870 3280 c0 -5 5 -10 11 -10 5 0 7 5 4 10 -3 6 -8 10 -11 10 -2 0
-4 -4 -4 -10z"/>
<path d="M853 3212 c0 -10 7 -19 14 -19 9 0 10 4 3 12 -5 7 -7 15 -3 18 3 4 1
7 -5 7 -6 0 -10 -8 -9 -18z"/>
<path d="M3682 3218 c-15 -15 -15 -28 0 -28 6 0 8 3 5 7 -4 3 -2 12 4 20 14
16 7 17 -9 1z"/>
<path d="M1010 3119 c0 -5 5 -7 10 -4 6 3 10 8 10 11 0 2 -4 4 -10 4 -5 0 -10
-5 -10 -11z"/>
<path d="M3841 3056 c-9 -11 -9 -16 1 -22 7 -4 10 -4 6 1 -4 4 -3 14 3 22 6 7
9 13 6 13 -2 0 -10 -6 -16 -14z"/>
<path d="M1010 3038 c0 -4 4 -8 9 -8 6 0 12 4 15 8 3 5 -1 9 -9 9 -8 0 -15 -4
-15 -9z"/>
<path d="M196 2995 c-3 -8 -1 -15 4 -15 6 0 10 7 10 15 0 8 -2 15 -4 15 -2 0
-6 -7 -10 -15z"/>
<path d="M1175 2979 c-4 -6 -5 -12 -2 -15 2 -3 7 2 10 11 7 17 1 20 -8 4z"/>
<path d="M5075 2689 c-4 -6 -5 -12 -2 -15 2 -3 7 2 10 11 7 17 1 20 -8 4z"/>
<path d="M416 2541 c-3 -4 6 -6 19 -3 14 2 25 6 25 8 0 8 -39 4 -44 -5z"/>
<path d="M496 2533 c-6 -14 -5 -15 5 -6 7 7 10 15 7 18 -3 3 -9 -2 -12 -12z"/>
<path d="M5075 2449 c-4 -6 -5 -12 -2 -15 2 -3 7 2 10 11 7 17 1 20 -8 4z"/>
<path d="M5075 2289 c-4 -6 -5 -12 -2 -15 2 -3 7 2 10 11 7 17 1 20 -8 4z"/>
<path d="M620 2220 c8 -5 20 -10 25 -10 6 0 3 5 -5 10 -8 5 -19 10 -25 10 -5
0 -3 -5 5 -10z"/>
<path d="M5075 2129 c-4 -6 -5 -12 -2 -15 2 -3 7 2 10 11 7 17 1 20 -8 4z"/>
<path d="M730 2079 c0 -5 5 -7 10 -4 6 3 10 8 10 11 0 2 -4 4 -10 4 -5 0 -10
-5 -10 -11z"/>
<path d="M759 2073 c-13 -16 -12 -17 3 -5 9 8 23 10 29 6 8 -4 9 -3 5 4 -10
17 -21 15 -37 -5z"/>
<path d="M5076 1998 c3 -5 10 -6 15 -3 13 9 11 12 -6 12 -8 0 -12 -4 -9 -9z"/>
<path d="M1125 1920 c-3 -6 1 -7 9 -4 18 7 21 14 7 14 -6 0 -13 -4 -16 -10z"/>
<path d="M4936 1913 c-6 -14 -5 -15 5 -6 7 7 10 15 7 18 -3 3 -9 -2 -12 -12z"/>
<path d="M5053 1913 c0 -9 4 -10 14 -2 7 6 13 12 13 14 0 1 -6 2 -13 2 -8 0
-14 -6 -14 -14z"/>
<path d="M4915 1880 c3 -5 8 -10 11 -10 2 0 4 5 4 10 0 6 -5 10 -11 10 -5 0
-7 -4 -4 -10z"/>
<path d="M4920 1834 c-11 -12 -10 -18 5 -32 18 -16 18 -16 6 1 -11 14 -11 20
-1 32 7 8 10 15 7 15 -2 0 -10 -7 -17 -16z"/>
<path d="M4776 1753 c-6 -14 -5 -15 5 -6 7 7 10 15 7 18 -3 3 -9 -2 -12 -12z"/>
<path d="M4850 1759 c0 -5 5 -7 10 -4 6 3 10 8 10 11 0 2 -4 4 -10 4 -5 0 -10
-5 -10 -11z"/>
<path d="M4890 1766 c0 -2 7 -7 16 -10 8 -3 12 -2 9 4 -6 10 -25 14 -25 6z"/>
<path d="M4755 1720 c3 -5 8 -10 11 -10 2 0 4 5 4 10 0 6 -5 10 -11 10 -5 0
-7 -4 -4 -10z"/>
<path d="M4753 1685 c0 -8 4 -15 9 -15 4 0 8 4 8 9 0 6 -4 12 -8 15 -5 3 -9
-1 -9 -9z"/>
<path d="M4613 1598 c5 -17 30 -17 33 0 1 7 0 8 -3 2 -2 -5 -9 -10 -14 -10 -6
0 -7 5 -4 10 3 6 1 10 -5 10 -7 0 -10 -6 -7 -12z"/>
<path d="M4666 1602 c-2 -4 4 -8 14 -8 10 0 16 4 14 8 -3 4 -9 8 -14 8 -5 0
-11 -4 -14 -8z"/>
<path d="M4613 1535 c-3 -9 -3 -18 -1 -21 3 -3 8 4 11 16 6 23 -1 27 -10 5z"/>
<path d="M4633 1515 c0 -8 4 -12 9 -9 5 3 6 10 3 15 -9 13 -12 11 -12 -6z"/>
<path d="M1216 1442 c-2 -4 4 -8 14 -8 10 0 16 4 14 8 -3 4 -9 8 -14 8 -5 0
-11 -4 -14 -8z"/>
<path d="M3972 1438 c2 -6 14 -15 27 -19 14 -6 20 -5 16 1 -3 6 -13 10 -21 10
-8 0 -12 5 -9 10 3 6 1 10 -5 10 -7 0 -10 -5 -8 -12z"/>
<path d="M4179 1433 c-12 -16 -12 -17 2 -6 9 7 20 9 24 5 5 -4 5 -1 1 6 -9 16
-11 15 -27 -5z"/>
<path d="M4236 1441 c-3 -4 4 -7 14 -6 27 2 33 10 10 12 -11 1 -22 -2 -24 -6z"/>
<path d="M4353 1435 c0 -8 4 -12 9 -9 4 3 8 9 8 15 0 5 -4 9 -8 9 -5 0 -9 -7
-9 -15z"/>
<path d="M4390 1439 c0 -5 5 -7 10 -4 6 3 10 8 10 11 0 2 -4 4 -10 4 -5 0 -10
-5 -10 -11z"/>
<path d="M4433 1435 c0 -8 4 -12 9 -9 4 3 8 9 8 15 0 5 -4 9 -8 9 -5 0 -9 -7
-9 -15z"/>
<path d="M4533 1435 c0 -8 4 -12 9 -9 5 3 6 10 3 15 -9 13 -12 11 -12 -6z"/>
<path d="M3973 1375 c-3 -9 -3 -18 -1 -21 3 -3 8 4 11 16 6 23 -1 27 -10 5z"/>
<path d="M1370 1279 c0 -5 5 -7 10 -4 6 3 10 8 10 11 0 2 -4 4 -10 4 -5 0 -10
-5 -10 -11z"/>
<path d="M3830 1281 c0 -5 5 -13 10 -16 6 -3 10 -2 10 4 0 5 -4 13 -10 16 -5
3 -10 2 -10 -4z"/>
<path d="M3866 1277 c3 -10 9 -15 12 -12 3 3 0 11 -7 18 -10 9 -11 8 -5 -6z"/>
<path d="M1585 1140 c-3 -6 1 -7 9 -4 18 7 21 14 7 14 -6 0 -13 -4 -16 -10z"/>
<path d="M1670 1139 c0 -5 5 -7 10 -4 6 3 10 8 10 11 0 2 -4 4 -10 4 -5 0 -10
-5 -10 -11z"/>
<path d="M1753 1128 c-2 -18 0 -20 7 -8 12 18 13 30 2 30 -4 0 -9 -10 -9 -22z"/>
<path d="M3696 1141 c-4 -5 3 -7 14 -4 23 6 26 13 6 13 -8 0 -17 -4 -20 -9z"/>
<path d="M3523 1083 c-7 -2 -13 -9 -13 -15 0 -7 5 -7 13 1 8 6 18 7 22 3 5 -4
5 -1 1 6 -4 6 -8 12 -9 11 -1 0 -8 -3 -14 -6z"/>
<path d="M1995 980 c3 -5 8 -10 11 -10 2 0 4 5 4 10 0 6 -5 10 -11 10 -5 0 -7
-4 -4 -10z"/>
<path d="M2115 980 c3 -5 8 -10 11 -10 2 0 4 5 4 10 0 6 -5 10 -11 10 -5 0 -7
-4 -4 -10z"/>
<path d="M2176 981 c-4 -5 3 -7 14 -4 23 6 26 13 6 13 -8 0 -17 -4 -20 -9z"/>
<path d="M2355 980 c3 -5 8 -10 11 -10 2 0 4 5 4 10 0 6 -5 10 -11 10 -5 0 -7
-4 -4 -10z"/>
<path d="M2518 983 c7 -3 16 -2 19 1 4 3 -2 6 -13 5 -11 0 -14 -3 -6 -6z"/>
<path d="M2595 980 c3 -5 8 -10 11 -10 2 0 4 5 4 10 0 6 -5 10 -11 10 -5 0 -7
-4 -4 -10z"/>
<path d="M2715 980 c3 -5 8 -10 11 -10 2 0 4 5 4 10 0 6 -5 10 -11 10 -5 0 -7
-4 -4 -10z"/>
<path d="M2915 980 c3 -5 8 -10 11 -10 2 0 4 5 4 10 0 6 -5 10 -11 10 -5 0 -7
-4 -4 -10z"/>
<path d="M3035 980 c3 -5 8 -10 11 -10 2 0 4 5 4 10 0 6 -5 10 -11 10 -5 0 -7
-4 -4 -10z"/>
<path d="M3416 981 c-4 -5 3 -7 14 -4 23 6 26 13 6 13 -8 0 -17 -4 -20 -9z"/>
</g>
</svg>
